<svg xmlns="http://www.w3.org/2000/svg" width="400" height="500" viewBox="0 0 400 500">
  <defs>
    <radialGradient id="bg1" cx="50%" cy="40%" r="60%">
      <stop offset="0%" stop-color="#7b3fa0"/>
      <stop offset="100%" stop-color="#1a0a2e"/>
    </radialGradient>
    <radialGradient id="face1" cx="50%" cy="40%" r="50%">
      <stop offset="0%" stop-color="#d4a574"/>
      <stop offset="100%" stop-color="#b8845a"/>
    </radialGradient>
  </defs>
  <rect width="400" height="500" fill="url(#bg1)"/>
  <circle cx="200" cy="180" r="80" fill="url(#face1)"/>
  <ellipse cx="200" cy="420" rx="130" ry="100" fill="#c9a84c" opacity="0.3"/>
  <ellipse cx="200" cy="440" rx="120" ry="90" fill="#5a2080"/>
  <path d="M 120 260 Q 200 220 280 260 L 280 360 Q 200 390 120 360 Z" fill="#5a2080"/>
  <circle cx="170" cy="175" r="8" fill="#2d0f4a"/>
  <circle cx="230" cy="175" r="8" fill="#2d0f4a"/>
  <path d="M 175 205 Q 200 220 225 205" stroke="#2d0f4a" stroke-width="3" fill="none" stroke-linecap="round"/>
  <path d="M 140 130 Q 200 100 260 130" stroke="#2d0f4a" stroke-width="4" fill="none"/>
  <ellipse cx="200" cy="115" rx="65" ry="30" fill="#2d0f4a"/>
  <rect x="175" y="160" width="12" height="8" rx="4" fill="#c9a84c" opacity="0.7"/>
  <rect x="213" y="160" width="12" height="8" rx="4" fill="#c9a84c" opacity="0.7"/>
</svg>